<?xml version="1.0" encoding="UTF-8"?>
<svg xmlns="http://www.w3.org/2000/svg" xmlns:xlink="http://www.w3.org/1999/xlink" version="1.1" id="Layer_1" x="0px" y="0px" viewBox="0 0 24 24" style="enable-background:new 0 0 24 24;" xml:space="preserve">
<g>
	<path style="fill:#303C42;" d="M17,3H2C0.897,3,0,3.897,0,5v10c0,1.103,0.897,2,2,2h15c1.103,0,2-0.897,2-2V5   C19,3.897,18.103,3,17,3z"/>
	<path style="fill:#FAFAFA;" d="M18,15c0,0.551-0.448,1-1,1H2c-0.552,0-1-0.449-1-1V5c0-0.142,0.031-0.275,0.085-0.398l7.448,6.108   C8.823,10.9,9.158,11,9.5,11c0.34,0,0.675-0.1,1.015-0.323l7.401-6.075C17.969,4.725,18,4.858,18,5V15z"/>
	<linearGradient id="SVGID_1_" gradientUnits="userSpaceOnUse" x1="5.3869" y1="0.4804" x2="19.1601" y2="14.2536">
		<stop offset="0" style="stop-color:#000000;stop-opacity:0.1"/>
		<stop offset="1" style="stop-color:#000000;stop-opacity:0"/>
	</linearGradient>
	<path style="fill:url(#SVGID_1_);" d="M12.5,16H17c0.552,0,1-0.449,1-1V5c0-0.142-0.031-0.275-0.085-0.398l-7.401,6.075   C10.175,10.9,9.84,11,9.5,11c-0.342,0-0.677-0.1-0.968-0.29L1.184,4.684L12.5,16z"/>
	<path style="fill:#FFFFFF;" d="M17,4c0.021,0,0.038,0.011,0.059,0.012l-7.136,5.86c-0.262,0.17-0.629,0.138-0.801,0.032   l-7.18-5.893C1.962,4.011,1.979,4,2,4H17z"/>
	<path style="fill:#303C42;" d="M18.5,10c-3.033,0-5.5,2.467-5.5,5.5s2.467,5.5,5.5,5.5c0.967,0,1.917-0.254,2.75-0.736   c0.239-0.138,0.321-0.444,0.182-0.683c-0.138-0.239-0.444-0.322-0.683-0.182C20.069,19.792,19.291,20,18.5,20   c-2.481,0-4.5-2.019-4.5-4.5s2.019-4.5,4.5-4.5s4.5,2.019,4.5,4.5V16c0,0.551-0.449,1-1,1s-1-0.449-1-1v-2   c0-0.276-0.224-0.5-0.5-0.5c-0.134,0-0.255,0.054-0.345,0.141C19.713,13.247,19.137,13,18.5,13c-1.378,0-2.5,1.122-2.5,2.5   s1.122,2.5,2.5,2.5c0.745,0,1.408-0.334,1.866-0.853C20.728,17.661,21.324,18,22,18c1.103,0,2-0.897,2-2v-0.5   C24,12.467,21.533,10,18.5,10z M18.5,17c-0.827,0-1.5-0.673-1.5-1.5s0.673-1.5,1.5-1.5s1.5,0.673,1.5,1.5S19.327,17,18.5,17z"/>
	<linearGradient id="SVGID_2_" gradientUnits="userSpaceOnUse" x1="-0.3881" y1="5.3891" x2="23.8781" y2="16.7046">
		<stop offset="0" style="stop-color:#FFFFFF;stop-opacity:0.2"/>
		<stop offset="1" style="stop-color:#FFFFFF;stop-opacity:0"/>
	</linearGradient>
	<path style="fill:url(#SVGID_2_);" d="M19,10.025V5c0-1.103-0.897-2-2-2H2C0.897,3,0,3.897,0,5v10c0,1.103,0.897,2,2,2h11.213   c0.655,2.305,2.775,4,5.287,4c0.967,0,1.917-0.254,2.75-0.736c0.239-0.138,0.321-0.444,0.182-0.683   c-0.138-0.239-0.444-0.322-0.683-0.182C20.069,19.792,19.291,20,18.5,20c-1.953,0-3.602-1.258-4.224-3h2.236   c0.457,0.603,1.174,1,1.987,1c0.745,0,1.408-0.334,1.866-0.853C20.728,17.661,21.324,18,22,18c1.103,0,2-0.897,2-2v-0.5   C24,12.636,21.799,10.279,19,10.025z M18.5,17c-0.25,0-0.482-0.067-0.689-0.176C18.51,16.512,19,15.814,19,15v-0.908   c0.581,0.207,1,0.757,1,1.408C20,16.327,19.327,17,18.5,17z M23,16c0,0.551-0.449,1-1,1s-1-0.449-1-1v-2c0-0.276-0.224-0.5-0.5-0.5   c-0.134,0-0.255,0.054-0.345,0.141c-0.323-0.287-0.718-0.494-1.155-0.586v-2.004c2.244,0.252,4,2.139,4,4.449V16z"/>
</g>
<g>
</g>
<g>
</g>
<g>
</g>
<g>
</g>
<g>
</g>
<g>
</g>
<g>
</g>
<g>
</g>
<g>
</g>
<g>
</g>
<g>
</g>
<g>
</g>
<g>
</g>
<g>
</g>
<g>
</g>

	
	<metadata>
		<rdf:RDF xmlns:rdf="http://www.w3.org/1999/02/22-rdf-syntax-ns#" xmlns:rdfs="http://www.w3.org/2000/01/rdf-schema#" xmlns:dc="http://purl.org/dc/elements/1.1/">
			<rdf:Description about="https://iconscout.com/legal#licenses" dc:title="Mail" dc:description="Mail" dc:publisher="Iconscout" dc:date="2017-03-22" dc:format="image/svg+xml" dc:language="en">
				<dc:creator>
					<rdf:Bag>
						<rdf:li/>
					</rdf:Bag>
				</dc:creator>
			</rdf:Description>
		</rdf:RDF>
    </metadata></svg> 
