<svg xmlns="http://www.w3.org/2000/svg" width="32" height="32" viewBox="0 0 32 32"><g transform="translate(0 -1020.362)"><path style="line-height:normal;text-indent:0;text-align:start;text-decoration-line:none;text-decoration-style:solid;text-decoration-color:#000;text-transform:none;block-progression:tb;isolation:auto;mix-blend-mode:normal" fill="#2b4255" d="m 16.222656,1026.4805 c -3.585486,0 -6.5891991,1.982 -8.3828122,4.8027 l -0.019531,0 0,0.027 c -0.9837879,1.5587 -1.7011719,3.2987 -1.7011719,5.2754 0,1.9765 0.7176074,3.715 1.7011719,5.2735 l 0,0.027 0.017578,0 c 1.7934474,2.8215 4.7986374,4.8028 8.3847654,4.8028 3.586041,0 6.591337,-1.9813 8.384766,-4.8028 l 0.01758,0 0,-0.027 c 0.983555,-1.5585 1.701172,-3.297 1.701172,-5.2735 0,-1.9767 -0.717394,-3.7167 -1.701172,-5.2754 l 0,-0.027 -0.01953,0 c -1.793595,-2.8207 -4.797414,-4.8027 -8.382813,-4.8027 z m -0.5,1.1015 0,3.7012 -6.7050779,0 c 1.5588719,-2.1157 3.9115719,-3.5418 6.7050779,-3.7012 z m 1,0 c 2.793428,0.1594 5.146223,1.5855 6.705078,3.7012 l -6.705078,0 0,-3.7012 z m -8.378906,4.7012 7.378906,0 0,3.8027 -8.5019529,0 c 0.079292,-1.3898 0.4906051,-2.6495 1.1230469,-3.8027 z m 8.378906,0 7.378906,0 c 0.632437,1.1532 1.043755,2.4129 1.123047,3.8027 l -8.501953,0 0,-3.8027 z m -9.5019529,4.8027 8.5019529,0 0,3.8008 -7.378906,0 c -0.6322786,-1.153 -1.0437271,-2.4112 -1.1230469,-3.8008 z m 9.5019529,0 8.501953,0 c -0.07932,1.3896 -0.490773,2.6478 -1.123047,3.8008 l -7.378906,0 0,-3.8008 z m -7.707031,4.8008 6.707031,0 0,3.7012 c -2.794244,-0.1594 -5.14822,-1.5846 -6.707031,-3.7012 z m 7.707031,0 6.707032,0 c -1.558795,2.1166 -3.912867,3.5418 -6.707032,3.7012 l 0,-3.7012 z" color="#000" font-family="sans-serif" font-weight="400" overflow="visible" white-space="normal"/><path style="line-height:normal;text-indent:0;text-align:start;text-decoration-line:none;text-decoration-style:solid;text-decoration-color:#000;text-transform:none;block-progression:tb;isolation:auto;mix-blend-mode:normal" fill="#2b4255" fill-rule="evenodd" d="M12.455078 1027.457c-2.4726598 6.0888-2.8794424 11.8723-.1875 18.1836L13.1875 1045.25c-2.592516-6.0782-2.209986-11.4932.195312-17.416l-.927734-.377zM19.917969 1027.457l-.927735.377c2.405298 5.9228 2.787843 11.3378.195313 17.416l.919922.3906c2.691958-6.3113 2.28516-12.0948-.1875-18.1836z" color="#000" font-family="sans-serif" font-weight="400" overflow="visible" white-space="normal"/><path style="line-height:normal;text-indent:0;text-align:start;text-decoration-line:none;text-decoration-style:solid;text-decoration-color:#000;text-transform:none;block-progression:tb;isolation:auto;mix-blend-mode:normal" fill="#f05542" d="m 17.054688,1023.8926 c -2.988622,-0.1959 -6.046984,0.6575 -8.5781255,2.5996 -5.0622685,3.8842 -6.4619075,10.9294 -3.2714844,16.4551 l 0.8652344,-0.5 c -2.9433554,-5.0978 -1.6546428,-11.5787 3.015625,-15.1621 4.6702815,-3.5835 11.2632055,-3.1507 15.4257815,1.0117 l 0.707031,-0.7071 c -2.255985,-2.2558 -5.175441,-3.5014 -8.164062,-3.6972 z" color="#000" font-family="sans-serif" font-weight="400" overflow="visible" white-space="normal"/><path style="line-height:normal;text-indent:0;text-align:start;text-decoration-line:none;text-decoration-style:solid;text-decoration-color:#000;text-transform:none;block-progression:tb;isolation:auto;mix-blend-mode:normal" fill="#f05542" fill-rule="evenodd" d="M24.386719 1026.1465l0 1.3183-1.31836 0 0 1 1.81836 0a.50005.50005 0 0 0 .5-.5l0-1.8183-1 0zM7.609375 1044.7812a.50005.50005 0 0 0-.5.5l0 1.8184 1 0 0-1.3184 1.3183594 0 0-1-1.8183594 0z" color="#000" font-family="sans-serif" font-weight="400" overflow="visible" white-space="normal"/><path style="line-height:normal;text-indent:0;text-align:start;text-decoration-line:none;text-decoration-style:solid;text-decoration-color:#000;text-transform:none;block-progression:tb;isolation:auto;mix-blend-mode:normal" fill="#000" d="m 27.296875,9.9199219 -0.867187,0.5000001 c 2.027905,3.51227 2.045672,7.678754 0.333984,11.103516 C 26.841164,21.510867 26.919204,21.5 27,21.5 c 0.280888,0 0.541721,0.08388 0.767578,0.220703 1.734907,-3.670505 1.679004,-8.07757 -0.470703,-11.8007811 z M 25.570312,23.421875 c -0.610663,0.793448 -1.328287,1.522932 -2.15625,2.158203 -4.670303,3.5834 -11.26323,3.150681 -15.4257808,-1.011719 L 7.28125,25.275391 c 2.2559717,2.2559 5.175442,3.501365 8.164062,3.697265 2.988622,0.1959 6.046971,-0.657509 8.578126,-2.599609 0.819732,-0.628961 1.532445,-1.348279 2.15625,-2.123047 -0.291606,-0.192885 -0.506879,-0.48711 -0.609376,-0.828125 z" color="#000" font-family="sans-serif" font-weight="400" overflow="visible" transform="translate(0 1020.362)" white-space="normal"/></g></svg>
